<svg width="94" height="40" viewBox="0 0 94 40" fill="none" xmlns="http://www.w3.org/2000/svg">
    <g clip-path="url(#clip0_450_2)">
        <mask id="mask0_450_2" style="mask-type:alpha" maskUnits="userSpaceOnUse" x="-2" y="11" width="98" height="36">
            <path d="M-2 19L66.5 19.5L74 20.5L75.5 24L78 29.5L87.5 29L85.5 16.5L89.5 11L96 19V47H-2V19Z" fill="#D9D9D9"/>
        </mask>
        <g mask="url(#mask0_450_2)">
            <mask id="path-2-outside-1_450_2" maskUnits="userSpaceOnUse" x="0" y="4" width="94" height="36" fill="black">
                <rect fill="white" y="4" width="94" height="36"/>
                <path d="M8.4188 25.648V37H2.7428V6.9H14.5248C16.0728 6.9 17.4201 7.158 18.5668 7.674C19.7135 8.16133 20.6595 8.82067 21.4048 9.652C22.1788 10.4547 22.7521 11.3863 23.1248 12.447C23.5261 13.479 23.7268 14.5397 23.7268 15.629V16.661C23.7268 17.779 23.5261 18.8827 23.1248 19.972C22.7521 21.0327 22.1788 21.993 21.4048 22.853C20.6595 23.6843 19.7135 24.358 18.5668 24.874C17.4201 25.39 16.0728 25.648 14.5248 25.648H8.4188ZM8.4188 20.23H13.9658C15.2271 20.23 16.2161 19.886 16.9328 19.198C17.6781 18.51 18.0508 17.6213 18.0508 16.532V16.016C18.0508 14.9267 17.6781 14.038 16.9328 13.35C16.2161 12.662 15.2271 12.318 13.9658 12.318H8.4188V20.23ZM46.0999 6.9V26.594C46.0999 30.034 45.1826 32.7287 43.3479 34.678C41.5419 36.6273 38.8472 37.602 35.2639 37.602C31.6806 37.602 28.9716 36.6273 27.1369 34.678C25.3309 32.7287 24.4279 30.034 24.4279 26.594V6.9H30.1039V26.594C30.1039 28.3713 30.5196 29.7617 31.3509 30.765C32.1822 31.7683 33.4866 32.27 35.2639 32.27C37.0412 32.27 38.3456 31.7683 39.1769 30.765C40.0082 29.7617 40.4239 28.3713 40.4239 26.594V6.9H46.0999ZM48.091 6.9H53.767V31.582H67.441V37H48.091V6.9ZM85.3421 16.102C85.3421 14.898 84.8691 13.8517 83.9231 12.963C83.0058 12.0743 81.7014 11.63 80.0101 11.63C78.5768 11.63 77.4444 11.931 76.6131 12.533C75.7818 13.1063 75.3661 13.8947 75.3661 14.898C75.3661 15.414 75.4664 15.887 75.6671 16.317C75.8678 16.7183 76.2118 17.091 76.6991 17.435C77.2151 17.7503 77.8744 18.037 78.6771 18.295C79.5084 18.553 80.5548 18.7967 81.8161 19.026C84.9694 19.5993 87.3774 20.5597 89.0401 21.907C90.7028 23.2543 91.5341 25.2467 91.5341 27.884V28.4C91.5341 29.8047 91.2761 31.0803 90.7601 32.227C90.2728 33.345 89.5561 34.3053 88.6101 35.108C87.6641 35.9107 86.5174 36.527 85.1701 36.957C83.8228 37.387 82.3034 37.602 80.6121 37.602C78.6341 37.602 76.8854 37.3297 75.3661 36.785C73.8754 36.2117 72.6284 35.4377 71.6251 34.463C70.6218 33.4597 69.8621 32.2987 69.3461 30.98C68.8301 29.6327 68.5721 28.1707 68.5721 26.594V25.304H74.2481V26.336C74.2481 28.142 74.7641 29.5897 75.7961 30.679C76.8568 31.7397 78.4908 32.27 80.6981 32.27C82.4181 32.27 83.6938 31.8973 84.5251 31.152C85.3564 30.4067 85.7721 29.518 85.7721 28.486C85.7721 27.9987 85.6861 27.54 85.5141 27.11C85.3421 26.6513 85.0411 26.25 84.6111 25.906C84.1811 25.5333 83.5934 25.2037 82.8481 24.917C82.1028 24.6303 81.1568 24.3867 80.0101 24.186C78.4908 23.928 77.1004 23.5983 75.8391 23.197C74.5778 22.767 73.4741 22.208 72.5281 21.52C71.6108 20.832 70.8941 19.972 70.3781 18.94C69.8621 17.908 69.6041 16.6467 69.6041 15.156V14.898C69.6041 13.6653 69.8478 12.533 70.3351 11.501C70.8511 10.4403 71.5534 9.523 72.4421 8.749C73.3594 7.975 74.4488 7.373 75.7101 6.943C77.0001 6.513 78.4334 6.298 80.0101 6.298C81.7874 6.298 83.3641 6.556 84.7401 7.072C86.1161 7.55933 87.2628 8.233 88.1801 9.093C89.1261 9.953 89.8284 10.942 90.2871 12.06C90.7744 13.178 91.0181 14.3533 91.0181 15.586V17.134H85.3421V16.102Z"/>
            </mask>
            <path d="M8.4188 25.648V37H2.7428V6.9H14.5248C16.0728 6.9 17.4201 7.158 18.5668 7.674C19.7135 8.16133 20.6595 8.82067 21.4048 9.652C22.1788 10.4547 22.7521 11.3863 23.1248 12.447C23.5261 13.479 23.7268 14.5397 23.7268 15.629V16.661C23.7268 17.779 23.5261 18.8827 23.1248 19.972C22.7521 21.0327 22.1788 21.993 21.4048 22.853C20.6595 23.6843 19.7135 24.358 18.5668 24.874C17.4201 25.39 16.0728 25.648 14.5248 25.648H8.4188ZM8.4188 20.23H13.9658C15.2271 20.23 16.2161 19.886 16.9328 19.198C17.6781 18.51 18.0508 17.6213 18.0508 16.532V16.016C18.0508 14.9267 17.6781 14.038 16.9328 13.35C16.2161 12.662 15.2271 12.318 13.9658 12.318H8.4188V20.23ZM46.0999 6.9V26.594C46.0999 30.034 45.1826 32.7287 43.3479 34.678C41.5419 36.6273 38.8472 37.602 35.2639 37.602C31.6806 37.602 28.9716 36.6273 27.1369 34.678C25.3309 32.7287 24.4279 30.034 24.4279 26.594V6.9H30.1039V26.594C30.1039 28.3713 30.5196 29.7617 31.3509 30.765C32.1822 31.7683 33.4866 32.27 35.2639 32.27C37.0412 32.27 38.3456 31.7683 39.1769 30.765C40.0082 29.7617 40.4239 28.3713 40.4239 26.594V6.9H46.0999ZM48.091 6.9H53.767V31.582H67.441V37H48.091V6.9ZM85.3421 16.102C85.3421 14.898 84.8691 13.8517 83.9231 12.963C83.0058 12.0743 81.7014 11.63 80.0101 11.63C78.5768 11.63 77.4444 11.931 76.6131 12.533C75.7818 13.1063 75.3661 13.8947 75.3661 14.898C75.3661 15.414 75.4664 15.887 75.6671 16.317C75.8678 16.7183 76.2118 17.091 76.6991 17.435C77.2151 17.7503 77.8744 18.037 78.6771 18.295C79.5084 18.553 80.5548 18.7967 81.8161 19.026C84.9694 19.5993 87.3774 20.5597 89.0401 21.907C90.7028 23.2543 91.5341 25.2467 91.5341 27.884V28.4C91.5341 29.8047 91.2761 31.0803 90.7601 32.227C90.2728 33.345 89.5561 34.3053 88.6101 35.108C87.6641 35.9107 86.5174 36.527 85.1701 36.957C83.8228 37.387 82.3034 37.602 80.6121 37.602C78.6341 37.602 76.8854 37.3297 75.3661 36.785C73.8754 36.2117 72.6284 35.4377 71.6251 34.463C70.6218 33.4597 69.8621 32.2987 69.3461 30.98C68.8301 29.6327 68.5721 28.1707 68.5721 26.594V25.304H74.2481V26.336C74.2481 28.142 74.7641 29.5897 75.7961 30.679C76.8568 31.7397 78.4908 32.27 80.6981 32.27C82.4181 32.27 83.6938 31.8973 84.5251 31.152C85.3564 30.4067 85.7721 29.518 85.7721 28.486C85.7721 27.9987 85.6861 27.54 85.5141 27.11C85.3421 26.6513 85.0411 26.25 84.6111 25.906C84.1811 25.5333 83.5934 25.2037 82.8481 24.917C82.1028 24.6303 81.1568 24.3867 80.0101 24.186C78.4908 23.928 77.1004 23.5983 75.8391 23.197C74.5778 22.767 73.4741 22.208 72.5281 21.52C71.6108 20.832 70.8941 19.972 70.3781 18.94C69.8621 17.908 69.6041 16.6467 69.6041 15.156V14.898C69.6041 13.6653 69.8478 12.533 70.3351 11.501C70.8511 10.4403 71.5534 9.523 72.4421 8.749C73.3594 7.975 74.4488 7.373 75.7101 6.943C77.0001 6.513 78.4334 6.298 80.0101 6.298C81.7874 6.298 83.3641 6.556 84.7401 7.072C86.1161 7.55933 87.2628 8.233 88.1801 9.093C89.1261 9.953 89.8284 10.942 90.2871 12.06C90.7744 13.178 91.0181 14.3533 91.0181 15.586V17.134H85.3421V16.102Z" fill="#341090"/>
            <path d="M8.4188 25.648V23.648H6.4188V25.648H8.4188ZM8.4188 37V39H10.4188V37H8.4188ZM2.7428 37H0.742797V39H2.7428V37ZM2.7428 6.9V4.9H0.742797V6.9H2.7428ZM18.5668 7.674L17.7461 9.49784L17.7652 9.50645L17.7845 9.51466L18.5668 7.674ZM21.4048 9.652L19.9157 10.9871L19.9399 11.0141L19.9651 11.0403L21.4048 9.652ZM23.1248 12.447L21.2379 13.11L21.2488 13.1411L21.2608 13.1719L23.1248 12.447ZM23.1248 19.972L21.2481 19.2806L21.2429 19.2948L21.2379 19.309L23.1248 19.972ZM21.4048 22.853L19.9182 21.5151L19.9157 21.5179L21.4048 22.853ZM18.5668 24.874L19.3875 26.6978L18.5668 24.874ZM8.4188 20.23H6.4188V22.23H8.4188V20.23ZM16.9328 19.198L15.5762 17.7284L15.5619 17.7417L15.5477 17.7552L16.9328 19.198ZM16.9328 13.35L15.5477 14.7928L15.5619 14.8063L15.5762 14.8196L16.9328 13.35ZM8.4188 12.318V10.318H6.4188V12.318H8.4188ZM6.4188 25.648V37H10.4188V25.648H6.4188ZM8.4188 35H2.7428V39H8.4188V35ZM4.7428 37V6.9H0.742797V37H4.7428ZM2.7428 8.9H14.5248V4.9H2.7428V8.9ZM14.5248 8.9C15.8536 8.9 16.9099 9.12154 17.7461 9.49784L19.3875 5.85016C17.9304 5.19445 16.292 4.9 14.5248 4.9V8.9ZM17.7845 9.51466C18.6928 9.9007 19.3877 10.3982 19.9157 10.9871L22.8939 8.31691C21.9313 7.24316 20.7341 6.42196 19.3491 5.83334L17.7845 9.51466ZM19.9651 11.0403C20.538 11.6344 20.9596 12.3181 21.2379 13.11L25.0117 11.784C24.5446 10.4546 23.8196 9.27498 22.8445 8.26373L19.9651 11.0403ZM21.2608 13.1719C21.5738 13.9767 21.7268 14.7918 21.7268 15.629H25.7268C25.7268 14.2875 25.4785 12.9813 24.9888 11.7221L21.2608 13.1719ZM21.7268 15.629V16.661H25.7268V15.629H21.7268ZM21.7268 16.661C21.7268 17.534 21.5711 18.404 21.2481 19.2806L25.0015 20.6634C25.4812 19.3613 25.7268 18.024 25.7268 16.661H21.7268ZM21.2379 19.309C20.9553 20.1132 20.5208 20.8456 19.9182 21.5151L22.8914 24.1909C23.8368 23.1404 24.5489 21.9522 25.0117 20.635L21.2379 19.309ZM19.9157 21.5179C19.3788 22.1168 18.6704 22.6342 17.7461 23.0502L19.3875 26.6978C20.7565 26.0818 21.9402 25.2519 22.8939 24.1881L19.9157 21.5179ZM17.7461 23.0502C16.9099 23.4265 15.8536 23.648 14.5248 23.648V27.648C16.292 27.648 17.9304 27.3535 19.3875 26.6978L17.7461 23.0502ZM14.5248 23.648H8.4188V27.648H14.5248V23.648ZM8.4188 22.23H13.9658V18.23H8.4188V22.23ZM13.9658 22.23C15.5981 22.23 17.1356 21.7757 18.3179 20.6408L15.5477 17.7552C15.2966 17.9963 14.8562 18.23 13.9658 18.23V22.23ZM18.2894 20.6676C19.4776 19.5707 20.0508 18.1333 20.0508 16.532H16.0508C16.0508 17.1094 15.8786 17.4493 15.5762 17.7284L18.2894 20.6676ZM20.0508 16.532V16.016H16.0508V16.532H20.0508ZM20.0508 16.016C20.0508 14.4147 19.4776 12.9773 18.2894 11.8804L15.5762 14.8196C15.8786 15.0987 16.0508 15.4386 16.0508 16.016H20.0508ZM18.3179 11.9072C17.1356 10.7723 15.5981 10.318 13.9658 10.318V14.318C14.8562 14.318 15.2966 14.5517 15.5477 14.7928L18.3179 11.9072ZM13.9658 10.318H8.4188V14.318H13.9658V10.318ZM6.4188 12.318V20.23H10.4188V12.318H6.4188ZM46.0999 6.9H48.0999V4.9H46.0999V6.9ZM43.3479 34.678L41.8915 33.3073L41.8861 33.313L41.8808 33.3188L43.3479 34.678ZM27.1369 34.678L25.6698 36.0372L25.6751 36.043L25.6805 36.0487L27.1369 34.678ZM24.4279 6.9V4.9H22.4279V6.9H24.4279ZM30.1039 6.9H32.1039V4.9H30.1039V6.9ZM31.3509 30.765L29.8109 32.041L31.3509 30.765ZM39.1769 30.765L37.6369 29.489L39.1769 30.765ZM40.4239 6.9V4.9H38.4239V6.9H40.4239ZM44.0999 6.9V26.594H48.0999V6.9H44.0999ZM44.0999 26.594C44.0999 29.6751 43.2859 31.8257 41.8915 33.3073L44.8043 36.0487C47.0792 33.6316 48.0999 30.3929 48.0999 26.594H44.0999ZM41.8808 33.3188C40.5717 34.7317 38.4924 35.602 35.2639 35.602V39.602C39.202 39.602 42.5121 38.5229 44.815 36.0372L41.8808 33.3188ZM35.2639 35.602C32.0375 35.602 29.9347 34.7325 28.5933 33.3073L25.6805 36.0487C28.0084 38.5222 31.3236 39.602 35.2639 39.602V35.602ZM28.604 33.3188C27.2321 31.838 26.4279 29.6831 26.4279 26.594H22.4279C22.4279 30.3849 23.4297 33.6193 25.6698 36.0372L28.604 33.3188ZM26.4279 26.594V6.9H22.4279V26.594H26.4279ZM24.4279 8.9H30.1039V4.9H24.4279V8.9ZM28.1039 6.9V26.594H32.1039V6.9H28.1039ZM28.1039 26.594C28.1039 28.6681 28.5897 30.5673 29.8109 32.041L32.8909 29.489C32.4494 28.9561 32.1039 28.0746 32.1039 26.594H28.1039ZM29.8109 32.041C31.1474 33.6542 33.1201 34.27 35.2639 34.27V30.27C33.853 30.27 33.217 29.8825 32.8909 29.489L29.8109 32.041ZM35.2639 34.27C37.4077 34.27 39.3804 33.6542 40.7169 32.041L37.6369 29.489C37.3108 29.8825 36.6748 30.27 35.2639 30.27V34.27ZM40.7169 32.041C41.9381 30.5673 42.4239 28.6681 42.4239 26.594H38.4239C38.4239 28.0746 38.0784 28.9561 37.6369 29.489L40.7169 32.041ZM42.4239 26.594V6.9H38.4239V26.594H42.4239ZM40.4239 8.9H46.0999V4.9H40.4239V8.9ZM48.091 6.9V4.9H46.091V6.9H48.091ZM53.767 6.9H55.767V4.9H53.767V6.9ZM53.767 31.582H51.767V33.582H53.767V31.582ZM67.441 31.582H69.441V29.582H67.441V31.582ZM67.441 37V39H69.441V37H67.441ZM48.091 37H46.091V39H48.091V37ZM48.091 8.9H53.767V4.9H48.091V8.9ZM51.767 6.9V31.582H55.767V6.9H51.767ZM53.767 33.582H67.441V29.582H53.767V33.582ZM65.441 31.582V37H69.441V31.582H65.441ZM67.441 35H48.091V39H67.441V35ZM50.091 37V6.9H46.091V37H50.091ZM83.9231 12.963L82.5315 14.3995L82.5425 14.4102L82.5537 14.4207L83.9231 12.963ZM76.6131 12.533L77.7486 14.1794L77.7675 14.1664L77.7861 14.1529L76.6131 12.533ZM75.6671 16.317L73.8547 17.1628L73.8662 17.1873L73.8783 17.2114L75.6671 16.317ZM76.6991 17.435L75.5457 19.0689L75.5998 19.1071L75.6562 19.1416L76.6991 17.435ZM78.6771 18.295L78.0651 20.1991L78.0747 20.2021L78.0843 20.2051L78.6771 18.295ZM81.8161 19.026L81.4583 20.9937L81.8161 19.026ZM89.0401 21.907L87.7809 23.4609L89.0401 21.907ZM90.7601 32.227L88.9363 31.4063L88.9314 31.417L88.9267 31.4278L90.7601 32.227ZM88.6101 35.108L89.9041 36.633L88.6101 35.108ZM85.1701 36.957L85.7782 38.8623L85.1701 36.957ZM75.3661 36.785L74.6481 38.6517L74.6696 38.6599L74.6912 38.6677L75.3661 36.785ZM71.6251 34.463L70.2109 35.8772L70.2211 35.8875L70.2315 35.8976L71.6251 34.463ZM69.3461 30.98L67.4784 31.6953L67.481 31.7021L67.4836 31.7088L69.3461 30.98ZM68.5721 25.304V23.304H66.5721V25.304H68.5721ZM74.2481 25.304H76.2481V23.304H74.2481V25.304ZM75.7961 30.679L74.3442 32.0545L74.3628 32.0741L74.3819 32.0932L75.7961 30.679ZM84.5251 31.152L83.19 29.6629L84.5251 31.152ZM85.5141 27.11L83.6414 27.8122L83.6491 27.8326L83.6572 27.8528L85.5141 27.11ZM84.6111 25.906L83.3012 27.4174L83.331 27.4432L83.3617 27.4677L84.6111 25.906ZM82.8481 24.917L83.5661 23.0503L82.8481 24.917ZM80.0101 24.186L80.3549 22.2159L80.3449 22.2142L80.0101 24.186ZM75.8391 23.197L75.1938 25.09L75.2132 25.0966L75.2327 25.1029L75.8391 23.197ZM72.5281 21.52L71.3281 23.12L71.3399 23.1288L71.3518 23.1375L72.5281 21.52ZM70.3351 11.501L68.5366 10.6261L68.5316 10.6365L68.5266 10.647L70.3351 11.501ZM72.4421 8.749L71.1524 7.22042L71.1404 7.23053L71.1285 7.24084L72.4421 8.749ZM75.7101 6.943L75.0776 5.04559L75.0648 5.04998L75.7101 6.943ZM84.7401 7.072L84.0379 8.94466L84.0551 8.95111L84.0724 8.95725L84.7401 7.072ZM88.1801 9.093L86.8122 10.5521L86.8234 10.5626L86.8348 10.5729L88.1801 9.093ZM90.2871 12.06L88.4368 12.8191L88.445 12.8392L88.4537 12.8592L90.2871 12.06ZM91.0181 17.134V19.134H93.0181V17.134H91.0181ZM85.3421 17.134H83.3421V19.134H85.3421V17.134ZM87.3421 16.102C87.3421 14.2996 86.6058 12.7391 85.2924 11.5053L82.5537 14.4207C83.1324 14.9643 83.3421 15.4964 83.3421 16.102H87.3421ZM85.3147 11.5265C83.9158 10.1714 82.0473 9.63 80.0101 9.63V13.63C81.3556 13.63 82.0957 13.9773 82.5315 14.3995L85.3147 11.5265ZM80.0101 9.63C78.3179 9.63 76.7241 9.98329 75.4401 10.9131L77.7861 14.1529C78.1647 13.8787 78.8356 13.63 80.0101 13.63V9.63ZM75.4776 10.8866C74.1092 11.8303 73.3661 13.232 73.3661 14.898H77.3661C77.3661 14.5573 77.4543 14.3824 77.7486 14.1794L75.4776 10.8866ZM73.3661 14.898C73.3661 15.6803 73.52 16.4454 73.8547 17.1628L77.4795 15.4712C77.4129 15.3286 77.3661 15.1477 77.3661 14.898H73.3661ZM73.8783 17.2114C74.2671 17.9891 74.8742 18.5949 75.5457 19.0689L77.8525 15.8011C77.5493 15.5871 77.4685 15.4476 77.456 15.4226L73.8783 17.2114ZM75.6562 19.1416C76.3488 19.5648 77.1658 19.91 78.0651 20.1991L79.2891 16.3909C78.583 16.164 78.0814 15.9358 77.742 15.7284L75.6562 19.1416ZM78.0843 20.2051C79.0195 20.4954 80.1509 20.756 81.4583 20.9937L82.1739 17.0583C80.9586 16.8373 79.9974 16.6106 79.2699 16.3849L78.0843 20.2051ZM81.4583 20.9937C84.4329 21.5346 86.4773 22.4045 87.7809 23.4609L90.2993 20.3531C88.2776 18.7149 85.506 17.6641 82.1739 17.0583L81.4583 20.9937ZM87.7809 23.4609C88.8671 24.3411 89.5341 25.6958 89.5341 27.884H93.5341C93.5341 24.7975 92.5384 22.1676 90.2993 20.3531L87.7809 23.4609ZM89.5341 27.884V28.4H93.5341V27.884H89.5341ZM89.5341 28.4C89.5341 29.555 89.3232 30.5463 88.9363 31.4063L92.5839 33.0477C93.229 31.6143 93.5341 30.0543 93.5341 28.4H89.5341ZM88.9267 31.4278C88.5636 32.2609 88.0334 32.9744 87.3161 33.583L89.9041 36.633C91.0788 35.6363 91.982 34.4291 92.5935 33.0262L88.9267 31.4278ZM87.3161 33.583C86.5977 34.1926 85.6929 34.6908 84.562 35.0517L85.7782 38.8623C87.342 38.3632 88.7305 37.6287 89.9041 36.633L87.3161 33.583ZM84.562 35.0517C83.4454 35.4081 82.1362 35.602 80.6121 35.602V39.602C82.4706 39.602 84.2001 39.3659 85.7782 38.8623L84.562 35.0517ZM80.6121 35.602C78.8141 35.602 77.3012 35.3541 76.041 34.9023L74.6912 38.6677C76.4697 39.3052 78.4541 39.602 80.6121 39.602V35.602ZM76.0841 34.9183C74.8099 34.4283 73.8027 33.7901 73.0187 33.0284L70.2315 35.8976C71.4542 37.0853 72.941 37.9951 74.6481 38.6517L76.0841 34.9183ZM73.0393 33.0488C72.2307 32.2401 71.6238 31.3124 71.2086 30.2512L67.4836 31.7088C68.1004 33.285 69.0129 34.6792 70.2109 35.8772L73.0393 33.0488ZM71.2138 30.2647C70.793 29.166 70.5721 27.9489 70.5721 26.594H66.5721C66.5721 28.3924 66.8672 30.0993 67.4784 31.6953L71.2138 30.2647ZM70.5721 26.594V25.304H66.5721V26.594H70.5721ZM68.5721 27.304H74.2481V23.304H68.5721V27.304ZM72.2481 25.304V26.336H76.2481V25.304H72.2481ZM72.2481 26.336C72.2481 28.5433 72.891 30.5205 74.3442 32.0545L77.248 29.3035C76.6372 28.6588 76.2481 27.7407 76.2481 26.336H72.2481ZM74.3819 32.0932C75.9631 33.6744 78.2094 34.27 80.6981 34.27V30.27C78.7721 30.27 77.7504 29.8049 77.2103 29.2648L74.3819 32.0932ZM80.6981 34.27C82.6546 34.27 84.5078 33.8536 85.8602 32.6411L83.19 29.6629C82.8798 29.941 82.1816 30.27 80.6981 30.27V34.27ZM85.8602 32.6411C87.0757 31.5514 87.7721 30.1366 87.7721 28.486H83.7721C83.7721 28.8994 83.6371 29.262 83.19 29.6629L85.8602 32.6411ZM87.7721 28.486C87.7721 27.7577 87.6424 27.0457 87.3711 26.3672L83.6572 27.8528C83.7298 28.0343 83.7721 28.2396 83.7721 28.486H87.7721ZM87.3868 26.4078C87.0731 25.5712 86.5361 24.8848 85.8605 24.3443L83.3617 27.4677C83.5461 27.6152 83.6111 27.7314 83.6414 27.8122L87.3868 26.4078ZM85.921 24.3946C85.2607 23.8224 84.4473 23.3892 83.5661 23.0503L82.1301 26.7837C82.7396 27.0181 83.1015 27.2443 83.3012 27.4174L85.921 24.3946ZM83.5661 23.0503C82.6589 22.7014 81.5767 22.4298 80.3549 22.2159L79.6653 26.1561C80.7368 26.3436 81.5467 26.5593 82.1301 26.7837L83.5661 23.0503ZM80.3449 22.2142C78.903 21.9694 77.6049 21.6601 76.4455 21.2911L75.2327 25.1029C76.5959 25.5366 78.0785 25.8866 79.6753 26.1578L80.3449 22.2142ZM76.4845 21.304C75.387 20.9298 74.4675 20.4575 73.7044 19.9025L71.3518 23.1375C72.4807 23.9585 73.7686 24.6042 75.1938 25.09L76.4845 21.304ZM73.7281 19.92C73.0608 19.4195 72.545 18.8017 72.167 18.0456L68.5892 19.8344C69.2432 21.1423 70.1608 22.2445 71.3281 23.12L73.7281 19.92ZM72.167 18.0456C71.8243 17.3603 71.6041 16.4238 71.6041 15.156H67.6041C67.6041 16.8696 67.8999 18.4557 68.5892 19.8344L72.167 18.0456ZM71.6041 15.156V14.898H67.6041V15.156H71.6041ZM71.6041 14.898C71.6041 13.9366 71.7922 13.099 72.1436 12.355L68.5266 10.647C67.9033 11.9669 67.6041 13.3941 67.6041 14.898H71.6041ZM72.1336 12.3759C72.5322 11.5565 73.0697 10.8546 73.7557 10.2572L71.1285 7.24084C70.0372 8.19138 69.17 9.32413 68.5366 10.6261L72.1336 12.3759ZM73.7318 10.2776C74.439 9.68088 75.3038 9.19454 76.3555 8.83602L75.0648 5.04998C73.5938 5.55146 72.2798 6.26912 71.1524 7.22042L73.7318 10.2776ZM76.3426 8.84036C77.399 8.4882 78.6148 8.298 80.0101 8.298V4.298C78.252 4.298 76.6012 4.53779 75.0776 5.04563L76.3426 8.84036ZM80.0101 8.298C81.5964 8.298 82.928 8.52844 84.0379 8.94466L85.4424 5.19934C83.8003 4.58355 81.9785 4.298 80.0101 4.298V8.298ZM84.0724 8.95725C85.2296 9.3671 86.1262 9.90892 86.8122 10.5521L89.548 7.63392C88.3994 6.55708 87.0026 5.75157 85.4078 5.18674L84.0724 8.95725ZM86.8348 10.5729C87.574 11.2449 88.0973 11.9917 88.4368 12.8191L92.1374 11.3009C91.5595 9.89227 90.6782 8.66105 89.5254 7.61312L86.8348 10.5729ZM88.4537 12.8592C88.8299 13.7223 89.0181 14.6253 89.0181 15.586H93.0181C93.0181 14.0814 92.7189 12.6337 92.1205 11.2608L88.4537 12.8592ZM89.0181 15.586V17.134H93.0181V15.586H89.0181ZM91.0181 15.134H85.3421V19.134H91.0181V15.134ZM87.3421 17.134V16.102H83.3421V17.134H87.3421Z" fill="#D5C8F8" mask="url(#path-2-outside-1_450_2)"/>
        </g>
        <mask id="path-4-outside-2_450_2" maskUnits="userSpaceOnUse" x="0" y="0" width="94" height="36" fill="black">
            <rect fill="white" width="94" height="36"/>
            <path d="M8.4188 21.648V33H2.7428V2.9H14.5248C16.0728 2.9 17.4201 3.158 18.5668 3.674C19.7135 4.16133 20.6595 4.82067 21.4048 5.652C22.1788 6.45466 22.7521 7.38633 23.1248 8.447C23.5261 9.479 23.7268 10.5397 23.7268 11.629V12.661C23.7268 13.779 23.5261 14.8827 23.1248 15.972C22.7521 17.0327 22.1788 17.993 21.4048 18.853C20.6595 19.6843 19.7135 20.358 18.5668 20.874C17.4201 21.39 16.0728 21.648 14.5248 21.648H8.4188ZM8.4188 16.23H13.9658C15.2271 16.23 16.2161 15.886 16.9328 15.198C17.6781 14.51 18.0508 13.6213 18.0508 12.532V12.016C18.0508 10.9267 17.6781 10.038 16.9328 9.35C16.2161 8.662 15.2271 8.318 13.9658 8.318H8.4188V16.23ZM46.0999 2.9V22.594C46.0999 26.034 45.1826 28.7287 43.3479 30.678C41.5419 32.6273 38.8472 33.602 35.2639 33.602C31.6806 33.602 28.9716 32.6273 27.1369 30.678C25.3309 28.7287 24.4279 26.034 24.4279 22.594V2.9H30.1039V22.594C30.1039 24.3713 30.5196 25.7617 31.3509 26.765C32.1822 27.7683 33.4866 28.27 35.2639 28.27C37.0412 28.27 38.3456 27.7683 39.1769 26.765C40.0082 25.7617 40.4239 24.3713 40.4239 22.594V2.9H46.0999ZM48.091 2.9H53.767V27.582H67.441V33H48.091V2.9ZM85.3421 12.102C85.3421 10.898 84.8691 9.85167 83.9231 8.963C83.0058 8.07433 81.7014 7.63 80.0101 7.63C78.5768 7.63 77.4444 7.931 76.6131 8.533C75.7818 9.10633 75.3661 9.89467 75.3661 10.898C75.3661 11.414 75.4664 11.887 75.6671 12.317C75.8678 12.7183 76.2118 13.091 76.6991 13.435C77.2151 13.7503 77.8744 14.037 78.6771 14.295C79.5084 14.553 80.5548 14.7967 81.8161 15.026C84.9694 15.5993 87.3774 16.5597 89.0401 17.907C90.7028 19.2543 91.5341 21.2467 91.5341 23.884V24.4C91.5341 25.8047 91.2761 27.0803 90.7601 28.227C90.2728 29.345 89.5561 30.3053 88.6101 31.108C87.6641 31.9107 86.5174 32.527 85.1701 32.957C83.8228 33.387 82.3034 33.602 80.6121 33.602C78.6341 33.602 76.8854 33.3297 75.3661 32.785C73.8754 32.2117 72.6284 31.4377 71.6251 30.463C70.6218 29.4597 69.8621 28.2987 69.3461 26.98C68.8301 25.6327 68.5721 24.1707 68.5721 22.594V21.304H74.2481V22.336C74.2481 24.142 74.7641 25.5897 75.7961 26.679C76.8568 27.7397 78.4908 28.27 80.6981 28.27C82.4181 28.27 83.6938 27.8973 84.5251 27.152C85.3564 26.4067 85.7721 25.518 85.7721 24.486C85.7721 23.9987 85.6861 23.54 85.5141 23.11C85.3421 22.6513 85.0411 22.25 84.6111 21.906C84.1811 21.5333 83.5934 21.2037 82.8481 20.917C82.1028 20.6303 81.1568 20.3867 80.0101 20.186C78.4908 19.928 77.1004 19.5983 75.8391 19.197C74.5778 18.767 73.4741 18.208 72.5281 17.52C71.6108 16.832 70.8941 15.972 70.3781 14.94C69.8621 13.908 69.6041 12.6467 69.6041 11.156V10.898C69.6041 9.66533 69.8478 8.533 70.3351 7.501C70.8511 6.44033 71.5534 5.523 72.4421 4.749C73.3594 3.975 74.4488 3.373 75.7101 2.943C77.0001 2.513 78.4334 2.298 80.0101 2.298C81.7874 2.298 83.3641 2.556 84.7401 3.072C86.1161 3.55933 87.2628 4.233 88.1801 5.093C89.1261 5.953 89.8284 6.942 90.2871 8.06C90.7744 9.178 91.0181 10.3533 91.0181 11.586V13.134H85.3421V12.102Z"/>
        </mask>
        <path d="M8.4188 21.648V33H2.7428V2.9H14.5248C16.0728 2.9 17.4201 3.158 18.5668 3.674C19.7135 4.16133 20.6595 4.82067 21.4048 5.652C22.1788 6.45466 22.7521 7.38633 23.1248 8.447C23.5261 9.479 23.7268 10.5397 23.7268 11.629V12.661C23.7268 13.779 23.5261 14.8827 23.1248 15.972C22.7521 17.0327 22.1788 17.993 21.4048 18.853C20.6595 19.6843 19.7135 20.358 18.5668 20.874C17.4201 21.39 16.0728 21.648 14.5248 21.648H8.4188ZM8.4188 16.23H13.9658C15.2271 16.23 16.2161 15.886 16.9328 15.198C17.6781 14.51 18.0508 13.6213 18.0508 12.532V12.016C18.0508 10.9267 17.6781 10.038 16.9328 9.35C16.2161 8.662 15.2271 8.318 13.9658 8.318H8.4188V16.23ZM46.0999 2.9V22.594C46.0999 26.034 45.1826 28.7287 43.3479 30.678C41.5419 32.6273 38.8472 33.602 35.2639 33.602C31.6806 33.602 28.9716 32.6273 27.1369 30.678C25.3309 28.7287 24.4279 26.034 24.4279 22.594V2.9H30.1039V22.594C30.1039 24.3713 30.5196 25.7617 31.3509 26.765C32.1822 27.7683 33.4866 28.27 35.2639 28.27C37.0412 28.27 38.3456 27.7683 39.1769 26.765C40.0082 25.7617 40.4239 24.3713 40.4239 22.594V2.9H46.0999ZM48.091 2.9H53.767V27.582H67.441V33H48.091V2.9ZM85.3421 12.102C85.3421 10.898 84.8691 9.85167 83.9231 8.963C83.0058 8.07433 81.7014 7.63 80.0101 7.63C78.5768 7.63 77.4444 7.931 76.6131 8.533C75.7818 9.10633 75.3661 9.89467 75.3661 10.898C75.3661 11.414 75.4664 11.887 75.6671 12.317C75.8678 12.7183 76.2118 13.091 76.6991 13.435C77.2151 13.7503 77.8744 14.037 78.6771 14.295C79.5084 14.553 80.5548 14.7967 81.8161 15.026C84.9694 15.5993 87.3774 16.5597 89.0401 17.907C90.7028 19.2543 91.5341 21.2467 91.5341 23.884V24.4C91.5341 25.8047 91.2761 27.0803 90.7601 28.227C90.2728 29.345 89.5561 30.3053 88.6101 31.108C87.6641 31.9107 86.5174 32.527 85.1701 32.957C83.8228 33.387 82.3034 33.602 80.6121 33.602C78.6341 33.602 76.8854 33.3297 75.3661 32.785C73.8754 32.2117 72.6284 31.4377 71.6251 30.463C70.6218 29.4597 69.8621 28.2987 69.3461 26.98C68.8301 25.6327 68.5721 24.1707 68.5721 22.594V21.304H74.2481V22.336C74.2481 24.142 74.7641 25.5897 75.7961 26.679C76.8568 27.7397 78.4908 28.27 80.6981 28.27C82.4181 28.27 83.6938 27.8973 84.5251 27.152C85.3564 26.4067 85.7721 25.518 85.7721 24.486C85.7721 23.9987 85.6861 23.54 85.5141 23.11C85.3421 22.6513 85.0411 22.25 84.6111 21.906C84.1811 21.5333 83.5934 21.2037 82.8481 20.917C82.1028 20.6303 81.1568 20.3867 80.0101 20.186C78.4908 19.928 77.1004 19.5983 75.8391 19.197C74.5778 18.767 73.4741 18.208 72.5281 17.52C71.6108 16.832 70.8941 15.972 70.3781 14.94C69.8621 13.908 69.6041 12.6467 69.6041 11.156V10.898C69.6041 9.66533 69.8478 8.533 70.3351 7.501C70.8511 6.44033 71.5534 5.523 72.4421 4.749C73.3594 3.975 74.4488 3.373 75.7101 2.943C77.0001 2.513 78.4334 2.298 80.0101 2.298C81.7874 2.298 83.3641 2.556 84.7401 3.072C86.1161 3.55933 87.2628 4.233 88.1801 5.093C89.1261 5.953 89.8284 6.942 90.2871 8.06C90.7744 9.178 91.0181 10.3533 91.0181 11.586V13.134H85.3421V12.102Z" fill="#341090"/>
        <path d="M8.4188 21.648V19.648H6.4188V21.648H8.4188ZM8.4188 33V35H10.4188V33H8.4188ZM2.7428 33H0.742797V35H2.7428V33ZM2.7428 2.9V0.899998H0.742797V2.9H2.7428ZM18.5668 3.674L17.7461 5.49784L17.7652 5.50645L17.7845 5.51466L18.5668 3.674ZM21.4048 5.652L19.9157 6.98709L19.9399 7.01413L19.9651 7.04027L21.4048 5.652ZM23.1248 8.447L21.2379 9.10997L21.2488 9.14112L21.2608 9.17189L23.1248 8.447ZM23.1248 15.972L21.2481 15.2806L21.2429 15.2948L21.2379 15.309L23.1248 15.972ZM21.4048 18.853L19.9182 17.5151L19.9157 17.5179L21.4048 18.853ZM18.5668 20.874L19.3875 22.6978L18.5668 20.874ZM8.4188 16.23H6.4188V18.23H8.4188V16.23ZM16.9328 15.198L15.5762 13.7284L15.5619 13.7417L15.5477 13.7552L16.9328 15.198ZM16.9328 9.35L15.5477 10.7928L15.5619 10.8063L15.5762 10.8196L16.9328 9.35ZM8.4188 8.318V6.318H6.4188V8.318H8.4188ZM6.4188 21.648V33H10.4188V21.648H6.4188ZM8.4188 31H2.7428V35H8.4188V31ZM4.7428 33V2.9H0.742797V33H4.7428ZM2.7428 4.9H14.5248V0.899998H2.7428V4.9ZM14.5248 4.9C15.8536 4.9 16.9099 5.12154 17.7461 5.49784L19.3875 1.85016C17.9304 1.19445 16.292 0.899998 14.5248 0.899998V4.9ZM17.7845 5.51466C18.6928 5.9007 19.3877 6.39817 19.9157 6.98709L22.8939 4.31691C21.9313 3.24316 20.7341 2.42196 19.3491 1.83334L17.7845 5.51466ZM19.9651 7.04027C20.538 7.63435 20.9596 8.31808 21.2379 9.10997L25.0117 7.78403C24.5446 6.45458 23.8196 5.27498 22.8445 4.26373L19.9651 7.04027ZM21.2608 9.17189C21.5738 9.97667 21.7268 10.7918 21.7268 11.629H25.7268C25.7268 10.2875 25.4785 8.98132 24.9888 7.72211L21.2608 9.17189ZM21.7268 11.629V12.661H25.7268V11.629H21.7268ZM21.7268 12.661C21.7268 13.534 21.5711 14.404 21.2481 15.2806L25.0015 16.6634C25.4812 15.3613 25.7268 14.024 25.7268 12.661H21.7268ZM21.2379 15.309C20.9553 16.1132 20.5208 16.8456 19.9182 17.5151L22.8914 20.1909C23.8368 19.1404 24.5489 17.9522 25.0117 16.635L21.2379 15.309ZM19.9157 17.5179C19.3788 18.1168 18.6704 18.6342 17.7461 19.0502L19.3875 22.6978C20.7565 22.0818 21.9402 21.2519 22.8939 20.1881L19.9157 17.5179ZM17.7461 19.0502C16.9099 19.4265 15.8536 19.648 14.5248 19.648V23.648C16.292 23.648 17.9304 23.3535 19.3875 22.6978L17.7461 19.0502ZM14.5248 19.648H8.4188V23.648H14.5248V19.648ZM8.4188 18.23H13.9658V14.23H8.4188V18.23ZM13.9658 18.23C15.5981 18.23 17.1356 17.7757 18.3179 16.6408L15.5477 13.7552C15.2966 13.9963 14.8562 14.23 13.9658 14.23V18.23ZM18.2894 16.6676C19.4776 15.5707 20.0508 14.1333 20.0508 12.532H16.0508C16.0508 13.1094 15.8786 13.4493 15.5762 13.7284L18.2894 16.6676ZM20.0508 12.532V12.016H16.0508V12.532H20.0508ZM20.0508 12.016C20.0508 10.4147 19.4776 8.97727 18.2894 7.88039L15.5762 10.8196C15.8786 11.0987 16.0508 11.4386 16.0508 12.016H20.0508ZM18.3179 7.90722C17.1356 6.77227 15.5981 6.318 13.9658 6.318V10.318C14.8562 10.318 15.2966 10.5517 15.5477 10.7928L18.3179 7.90722ZM13.9658 6.318H8.4188V10.318H13.9658V6.318ZM6.4188 8.318V16.23H10.4188V8.318H6.4188ZM46.0999 2.9H48.0999V0.899998H46.0999V2.9ZM43.3479 30.678L41.8915 29.3073L41.8861 29.313L41.8808 29.3188L43.3479 30.678ZM27.1369 30.678L25.6698 32.0372L25.6751 32.043L25.6805 32.0487L27.1369 30.678ZM24.4279 2.9V0.899998H22.4279V2.9H24.4279ZM30.1039 2.9H32.1039V0.899998H30.1039V2.9ZM31.3509 26.765L29.8109 28.041L31.3509 26.765ZM39.1769 26.765L37.6369 25.489L39.1769 26.765ZM40.4239 2.9V0.899998H38.4239V2.9H40.4239ZM44.0999 2.9V22.594H48.0999V2.9H44.0999ZM44.0999 22.594C44.0999 25.6751 43.2859 27.8257 41.8915 29.3073L44.8043 32.0487C47.0792 29.6316 48.0999 26.3929 48.0999 22.594H44.0999ZM41.8808 29.3188C40.5717 30.7317 38.4924 31.602 35.2639 31.602V35.602C39.202 35.602 42.5121 34.5229 44.815 32.0372L41.8808 29.3188ZM35.2639 31.602C32.0375 31.602 29.9347 30.7325 28.5933 29.3073L25.6805 32.0487C28.0084 34.5222 31.3236 35.602 35.2639 35.602V31.602ZM28.604 29.3188C27.2321 27.838 26.4279 25.6831 26.4279 22.594H22.4279C22.4279 26.3849 23.4297 29.6193 25.6698 32.0372L28.604 29.3188ZM26.4279 22.594V2.9H22.4279V22.594H26.4279ZM24.4279 4.9H30.1039V0.899998H24.4279V4.9ZM28.1039 2.9V22.594H32.1039V2.9H28.1039ZM28.1039 22.594C28.1039 24.6681 28.5897 26.5673 29.8109 28.041L32.8909 25.489C32.4494 24.9561 32.1039 24.0746 32.1039 22.594H28.1039ZM29.8109 28.041C31.1474 29.6542 33.1201 30.27 35.2639 30.27V26.27C33.853 26.27 33.217 25.8825 32.8909 25.489L29.8109 28.041ZM35.2639 30.27C37.4077 30.27 39.3804 29.6542 40.7169 28.041L37.6369 25.489C37.3108 25.8825 36.6748 26.27 35.2639 26.27V30.27ZM40.7169 28.041C41.9381 26.5673 42.4239 24.6681 42.4239 22.594H38.4239C38.4239 24.0746 38.0784 24.9561 37.6369 25.489L40.7169 28.041ZM42.4239 22.594V2.9H38.4239V22.594H42.4239ZM40.4239 4.9H46.0999V0.899998H40.4239V4.9ZM48.091 2.9V0.899998H46.091V2.9H48.091ZM53.767 2.9H55.767V0.899998H53.767V2.9ZM53.767 27.582H51.767V29.582H53.767V27.582ZM67.441 27.582H69.441V25.582H67.441V27.582ZM67.441 33V35H69.441V33H67.441ZM48.091 33H46.091V35H48.091V33ZM48.091 4.9H53.767V0.899998H48.091V4.9ZM51.767 2.9V27.582H55.767V2.9H51.767ZM53.767 29.582H67.441V25.582H53.767V29.582ZM65.441 27.582V33H69.441V27.582H65.441ZM67.441 31H48.091V35H67.441V31ZM50.091 33V2.9H46.091V33H50.091ZM83.9231 8.963L82.5315 10.3995L82.5425 10.4102L82.5537 10.4207L83.9231 8.963ZM76.6131 8.533L77.7486 10.1794L77.7675 10.1664L77.7861 10.1529L76.6131 8.533ZM75.6671 12.317L73.8547 13.1628L73.8662 13.1873L73.8783 13.2114L75.6671 12.317ZM76.6991 13.435L75.5457 15.0689L75.5998 15.1071L75.6562 15.1416L76.6991 13.435ZM78.6771 14.295L78.0651 16.1991L78.0747 16.2021L78.0843 16.2051L78.6771 14.295ZM81.8161 15.026L81.4583 16.9937L81.8161 15.026ZM89.0401 17.907L87.7809 19.4609L89.0401 17.907ZM90.7601 28.227L88.9363 27.4063L88.9314 27.417L88.9267 27.4278L90.7601 28.227ZM88.6101 31.108L89.9041 32.633L88.6101 31.108ZM85.1701 32.957L85.7782 34.8623L85.1701 32.957ZM75.3661 32.785L74.6481 34.6517L74.6696 34.6599L74.6912 34.6677L75.3661 32.785ZM71.6251 30.463L70.2109 31.8772L70.2211 31.8875L70.2315 31.8976L71.6251 30.463ZM69.3461 26.98L67.4784 27.6953L67.481 27.7021L67.4836 27.7088L69.3461 26.98ZM68.5721 21.304V19.304H66.5721V21.304H68.5721ZM74.2481 21.304H76.2481V19.304H74.2481V21.304ZM75.7961 26.679L74.3442 28.0545L74.3628 28.0741L74.3819 28.0932L75.7961 26.679ZM84.5251 27.152L83.19 25.6629L84.5251 27.152ZM85.5141 23.11L83.6414 23.8122L83.6491 23.8326L83.6572 23.8528L85.5141 23.11ZM84.6111 21.906L83.3012 23.4174L83.331 23.4432L83.3617 23.4677L84.6111 21.906ZM82.8481 20.917L83.5661 19.0503L82.8481 20.917ZM80.0101 20.186L80.3549 18.2159L80.3449 18.2142L80.0101 20.186ZM75.8391 19.197L75.1938 21.09L75.2132 21.0966L75.2327 21.1029L75.8391 19.197ZM72.5281 17.52L71.3281 19.12L71.3399 19.1288L71.3518 19.1375L72.5281 17.52ZM70.3351 7.501L68.5366 6.62607L68.5316 6.6365L68.5266 6.64699L70.3351 7.501ZM72.4421 4.749L71.1524 3.22042L71.1404 3.23053L71.1285 3.24084L72.4421 4.749ZM75.7101 2.943L75.0776 1.04559L75.0648 1.04998L75.7101 2.943ZM84.7401 3.072L84.0379 4.94466L84.0551 4.95111L84.0724 4.95725L84.7401 3.072ZM88.1801 5.093L86.8122 6.55207L86.8234 6.56256L86.8348 6.57288L88.1801 5.093ZM90.2871 8.06L88.4368 8.81911L88.445 8.83923L88.4537 8.85917L90.2871 8.06ZM91.0181 13.134V15.134H93.0181V13.134H91.0181ZM85.3421 13.134H83.3421V15.134H85.3421V13.134ZM87.3421 12.102C87.3421 10.2996 86.6058 8.73907 85.2924 7.5053L82.5537 10.4207C83.1324 10.9643 83.3421 11.4964 83.3421 12.102H87.3421ZM85.3147 7.52652C83.9158 6.17139 82.0473 5.63 80.0101 5.63V9.63C81.3556 9.63 82.0957 9.97728 82.5315 10.3995L85.3147 7.52652ZM80.0101 5.63C78.3179 5.63 76.7241 5.98329 75.4401 6.91312L77.7861 10.1529C78.1647 9.87871 78.8356 9.63 80.0101 9.63V5.63ZM75.4776 6.88657C74.1092 7.83031 73.3661 9.23199 73.3661 10.898H77.3661C77.3661 10.5573 77.4543 10.3824 77.7486 10.1794L75.4776 6.88657ZM73.3661 10.898C73.3661 11.6803 73.52 12.4454 73.8547 13.1628L77.4795 11.4712C77.4129 11.3286 77.3661 11.1477 77.3661 10.898H73.3661ZM73.8783 13.2114C74.2671 13.9891 74.8742 14.5949 75.5457 15.0689L77.8525 11.8011C77.5493 11.5871 77.4685 11.4476 77.456 11.4226L73.8783 13.2114ZM75.6562 15.1416C76.3488 15.5648 77.1658 15.91 78.0651 16.1991L79.2891 12.3909C78.583 12.164 78.0814 11.9358 77.742 11.7284L75.6562 15.1416ZM78.0843 16.2051C79.0195 16.4954 80.1509 16.756 81.4583 16.9937L82.1739 13.0583C80.9586 12.8373 79.9974 12.6106 79.2699 12.3849L78.0843 16.2051ZM81.4583 16.9937C84.4329 17.5346 86.4773 18.4045 87.7809 19.4609L90.2993 16.3531C88.2776 14.7149 85.506 13.6641 82.1739 13.0583L81.4583 16.9937ZM87.7809 19.4609C88.8671 20.3411 89.5341 21.6958 89.5341 23.884H93.5341C93.5341 20.7975 92.5384 18.1676 90.2993 16.3531L87.7809 19.4609ZM89.5341 23.884V24.4H93.5341V23.884H89.5341ZM89.5341 24.4C89.5341 25.555 89.3232 26.5463 88.9363 27.4063L92.5839 29.0477C93.229 27.6143 93.5341 26.0543 93.5341 24.4H89.5341ZM88.9267 27.4278C88.5636 28.2609 88.0334 28.9744 87.3161 29.583L89.9041 32.633C91.0788 31.6363 91.982 30.4291 92.5935 29.0262L88.9267 27.4278ZM87.3161 29.583C86.5977 30.1926 85.6929 30.6908 84.562 31.0517L85.7782 34.8623C87.342 34.3632 88.7305 33.6287 89.9041 32.633L87.3161 29.583ZM84.562 31.0517C83.4454 31.4081 82.1362 31.602 80.6121 31.602V35.602C82.4706 35.602 84.2001 35.3659 85.7782 34.8623L84.562 31.0517ZM80.6121 31.602C78.8141 31.602 77.3012 31.3541 76.041 30.9023L74.6912 34.6677C76.4697 35.3052 78.4541 35.602 80.6121 35.602V31.602ZM76.0841 30.9183C74.8099 30.4283 73.8027 29.7901 73.0187 29.0284L70.2315 31.8976C71.4542 33.0853 72.941 33.9951 74.6481 34.6517L76.0841 30.9183ZM73.0393 29.0488C72.2307 28.2401 71.6238 27.3124 71.2086 26.2512L67.4836 27.7088C68.1004 29.285 69.0129 30.6792 70.2109 31.8772L73.0393 29.0488ZM71.2138 26.2647C70.793 25.166 70.5721 23.9489 70.5721 22.594H66.5721C66.5721 24.3924 66.8672 26.0993 67.4784 27.6953L71.2138 26.2647ZM70.5721 22.594V21.304H66.5721V22.594H70.5721ZM68.5721 23.304H74.2481V19.304H68.5721V23.304ZM72.2481 21.304V22.336H76.2481V21.304H72.2481ZM72.2481 22.336C72.2481 24.5433 72.891 26.5205 74.3442 28.0545L77.248 25.3035C76.6372 24.6588 76.2481 23.7407 76.2481 22.336H72.2481ZM74.3819 28.0932C75.9631 29.6744 78.2094 30.27 80.6981 30.27V26.27C78.7721 26.27 77.7504 25.8049 77.2103 25.2648L74.3819 28.0932ZM80.6981 30.27C82.6546 30.27 84.5078 29.8536 85.8602 28.6411L83.19 25.6629C82.8798 25.941 82.1816 26.27 80.6981 26.27V30.27ZM85.8602 28.6411C87.0757 27.5514 87.7721 26.1366 87.7721 24.486H83.7721C83.7721 24.8994 83.6371 25.262 83.19 25.6629L85.8602 28.6411ZM87.7721 24.486C87.7721 23.7577 87.6424 23.0457 87.3711 22.3672L83.6572 23.8528C83.7298 24.0343 83.7721 24.2396 83.7721 24.486H87.7721ZM87.3868 22.4078C87.0731 21.5712 86.5361 20.8848 85.8605 20.3443L83.3617 23.4677C83.5461 23.6152 83.6111 23.7314 83.6414 23.8122L87.3868 22.4078ZM85.921 20.3946C85.2607 19.8224 84.4473 19.3892 83.5661 19.0503L82.1301 22.7837C82.7396 23.0181 83.1015 23.2443 83.3012 23.4174L85.921 20.3946ZM83.5661 19.0503C82.6589 18.7014 81.5767 18.4298 80.3549 18.2159L79.6653 22.1561C80.7368 22.3436 81.5467 22.5593 82.1301 22.7837L83.5661 19.0503ZM80.3449 18.2142C78.903 17.9694 77.6049 17.6601 76.4455 17.2911L75.2327 21.1029C76.5959 21.5366 78.0785 21.8866 79.6753 22.1578L80.3449 18.2142ZM76.4845 17.304C75.387 16.9298 74.4675 16.4575 73.7044 15.9025L71.3518 19.1375C72.4807 19.9585 73.7686 20.6042 75.1938 21.09L76.4845 17.304ZM73.7281 15.92C73.0608 15.4195 72.545 14.8017 72.167 14.0456L68.5892 15.8344C69.2432 17.1423 70.1608 18.2445 71.3281 19.12L73.7281 15.92ZM72.167 14.0456C71.8243 13.3603 71.6041 12.4238 71.6041 11.156H67.6041C67.6041 12.8696 67.8999 14.4557 68.5892 15.8344L72.167 14.0456ZM71.6041 11.156V10.898H67.6041V11.156H71.6041ZM71.6041 10.898C71.6041 9.93661 71.7922 9.09905 72.1436 8.35501L68.5266 6.64699C67.9033 7.96695 67.6041 9.39406 67.6041 10.898H71.6041ZM72.1336 8.37593C72.5322 7.55653 73.0697 6.85462 73.7557 6.25716L71.1285 3.24084C70.0372 4.19138 69.17 5.32413 68.5366 6.62607L72.1336 8.37593ZM73.7318 6.27758C74.439 5.68088 75.3038 5.19454 76.3555 4.83602L75.0648 1.04998C73.5938 1.55146 72.2798 2.26912 71.1524 3.22042L73.7318 6.27758ZM76.3426 4.84036C77.399 4.4882 78.6148 4.298 80.0101 4.298V0.297998C78.252 0.297998 76.6012 0.537793 75.0776 1.04563L76.3426 4.84036ZM80.0101 4.298C81.5964 4.298 82.928 4.52844 84.0379 4.94466L85.4424 1.19934C83.8003 0.583553 81.9785 0.297998 80.0101 0.297998V4.298ZM84.0724 4.95725C85.2296 5.3671 86.1262 5.90892 86.8122 6.55207L89.548 3.63392C88.3994 2.55708 87.0026 1.75157 85.4078 1.18674L84.0724 4.95725ZM86.8348 6.57288C87.574 7.24495 88.0973 7.99172 88.4368 8.81911L92.1374 7.30089C91.5595 5.89227 90.6782 4.66105 89.5254 3.61312L86.8348 6.57288ZM88.4537 8.85917C88.8299 9.7223 89.0181 10.6253 89.0181 11.586H93.0181C93.0181 10.0814 92.7189 8.6337 92.1205 7.26083L88.4537 8.85917ZM89.0181 11.586V13.134H93.0181V11.586H89.0181ZM91.0181 11.134H85.3421V15.134H91.0181V11.134ZM87.3421 13.134V12.102H83.3421V13.134H87.3421Z" fill="#D5C8F8" mask="url(#path-4-outside-2_450_2)"/>
    </g>
    <defs>
        <clipPath id="clip0_450_2">
            <rect width="94" height="40" fill="white"/>
        </clipPath>
    </defs>
</svg>
